<?xml version="1.0" encoding="utf-8"?>
<!-- Generator: Adobe Illustrator 26.0.3, SVG Export Plug-In . SVG Version: 6.00 Build 0)  -->
<svg version="1.0" id="katman_1" xmlns="http://www.w3.org/2000/svg" xmlns:xlink="http://www.w3.org/1999/xlink" x="0px" y="0px"
	 viewBox="0 0 800 600" style="enable-background:new 0 0 800 600;" xml:space="preserve">
<style type="text/css">
	.st0{fill-rule:evenodd;clip-rule:evenodd;fill:#191919;}
	.st1{fill-rule:evenodd;clip-rule:evenodd;fill:#73A8FF;}
	.st2{fill-rule:evenodd;clip-rule:evenodd;fill:#FFFFFF;filter:url(#Adobe_OpacityMaskFilter);}
	.st3{mask:url(#a_00000073686756316085123040000003492182474385368735_);}
	.st4{fill-rule:evenodd;clip-rule:evenodd;fill:#415AFF;}
</style>
<g>
	<path class="st0" d="M656.6,302.4c-0.2,13.9,8.5,25.2,22.4,25.3c13.5,0.2,22.5-10.7,22.7-24.7c0.2-13.9-8.5-25.2-22-25.3
		C665.8,277.5,656.8,288.7,656.6,302.4z M720.9,311.2c0,0,0,6.3-0.1,13.5l0,0v18.8l-4.7,0c-7.4,0-12.8-3.9-14.5-10.2
		c-7,7.3-17.1,11-25.8,10.9c-22.8-0.3-39.1-19-38.9-42c0.3-22.8,17.1-41.3,39.9-41c9.4,0.1,20.2,4.1,26.9,12.9l0-10.2l16.9,0
		L720.9,311.2L720.9,311.2z M403.8,294.4c1.4-10.3,9.7-18.4,21.1-18.4c10.9,0,18.8,7.5,20,18.4H403.8z M425.4,261.3
		c-25.4,0-42.6,19-42.6,41.5c0,22.6,17.1,41.5,42.8,41.5c14.7,0,28.1-7.6,35.2-20.9c2-3.7,2.6-7.5,2.6-7.9l-18.3,0
		c-3.6,7.2-10.2,13-20.3,13c-11.6,0-21.1-8.1-22.2-21.3h61.7l0.2-4.3C464.5,274.7,443.5,261.3,425.4,261.3z M493.5,294.4
		c1.4-10.3,9.7-18.4,21.1-18.4c10.9,0,18.8,7.5,20,18.4H493.5z M515.1,261.3c-25.4,0-42.6,19-42.6,41.5c0,22.6,17,41.5,42.8,41.5
		c14.7,0,28.1-7.6,35.2-20.9c2-3.7,2.6-7.5,2.6-7.9l-18.4,0c-3.6,7.2-10.2,13-20.3,13c-11.6,0-21.1-8.1-22.2-21.3H554l0.2-4.3
		C554.2,274.7,533.2,261.3,515.1,261.3z M595.8,315.7l23.5-51.8h21.3l-37.3,77.9h-14.8l-37.3-77.9h21.3L595.8,315.7z M340.2,261.6
		c-11,0-20.4,4.7-27.7,12c-2-5.7-7.2-9.5-14.2-9.5l-4.7,0l0,77.9h19.4c0,0,0.3-42.9,0.3-43.9c0-11.1,11.6-20,22.2-20
		c12.4,0,19.4,8.4,19.4,21.6V342h19.4v-44.4C374.5,276.5,360.8,261.6,340.2,261.6z"/>
	<path class="st1" d="M78.8,308.1c38.9,2.4,72.2-27,74.5-65.6c0.1-1.1,0.1-2.3,0.1-3.4c-43.8-3.6-73.8,29.3-74.6,65.6l0,1.5
		L78.8,308.1z"/>
	<defs>
		<filter id="Adobe_OpacityMaskFilter" filterUnits="userSpaceOnUse" x="78.8" y="240.1" width="138.8" height="121.2">
			<feColorMatrix  type="matrix" values="1 0 0 0 0  0 1 0 0 0  0 0 1 0 0  0 0 0 1 0"/>
		</filter>
	</defs>
	
		<mask maskUnits="userSpaceOnUse" x="78.8" y="240.1" width="138.8" height="121.2" id="a_00000073686756316085123040000003492182474385368735_">
		<path class="st2" d="M78.8,361.3h138.8V238.8H78.8V361.3z"/>
	</mask>
	<g class="st3">
		<g>
			<path class="st4" d="M78.8,361.3h43.5v-44.3H78.8V361.3z"/>
			<path class="st4" d="M163.3,240.1c0,1-0.1,2-0.1,3c-0.8,13.4-5,26.5-12.1,37.8v0.3c12.7,0,23,10.5,23,23.5v56.5h43.5v-54.5
				C217.6,274.1,194.7,246.1,163.3,240.1"/>
			<path class="st4" d="M174.1,361.3h43.5v-44.3h-43.5V361.3z"/>
		</g>
		<path class="st1" d="M80.5,291.2c4.2-0.7,18.4-5.4,18.4-5.4s12.6-7,18.3-19.9c4.1-9.4,0.8-17.2-0.9-20.2
			C97.8,254.7,84.9,271.8,80.5,291.2"/>
		<path class="st1" d="M111.2,276.8c-13.5,0.5-26.7,6.2-28.5,7c-2.3,6.6-3.6,13.7-3.8,20.8l0,1.5l0,1.9
			c25.6,1.6,48.8-10.7,62.4-30.2C135,278.8,125.4,276.3,111.2,276.8"/>
	</g>
</g>
</svg>
